<?xml version="1.0" encoding="UTF-8"?>
<svg version="1.1" xmlns="http://www.w3.org/2000/svg" width="512" height="512">
<path d="M0 0 C3.81828166 2.21343327 7.39942249 4.59117942 10.9375 7.2265625 C16.7131558 11.46655958 22.6420564 15.43529537 28.625 19.375 C35.09189276 23.65739764 41.53469651 27.94415245 47.8125 32.5 C54.03034628 37.01098652 60.40918684 41.25721793 66.8125 45.5 C74.3168707 50.47233364 81.71375066 55.52639754 89 60.8125 C94.17783655 64.51095468 99.50886554 67.9858559 104.8125 71.5 C112.31447702 76.47074761 119.71013583 81.52150218 126.9921875 86.80859375 C132.20966697 90.53598905 137.5905924 94.02497131 142.9375 97.5625 C172.35886075 117.08608073 172.35886075 117.08608073 174.8125 127.5 C175.84909285 136.20282351 175.05169095 143.32130086 169.8125 150.5 C163.74324515 157.08318369 158.23146881 159.73148254 149.37109375 160.46875 C143.0902376 160.54546275 138.44384332 158.31567166 132.8125 155.5 C133.1425 170.35 133.4725 185.2 133.8125 200.5 C137.90269531 198.95570313 141.99289062 197.41140625 146.20703125 195.8203125 C149.55583441 194.55648197 152.90470084 193.29281939 156.2536087 192.02926636 C159.74044165 190.71362309 163.22717343 189.39771347 166.71362305 188.08105469 C168.06103067 187.57225375 169.40844277 187.06346466 170.75585938 186.5546875 C171.42303923 186.30275005 172.09021908 186.05081261 172.7776165 185.79124069 C176.14146813 184.52151034 179.5061215 183.2539695 182.87234497 181.99053955 C183.53707762 181.74103924 184.20181026 181.49153893 184.88668633 181.234478 C186.2198444 180.73411836 187.55303132 180.23383556 188.88624763 179.73363113 C192.826391 178.25322285 196.75982535 176.75644964 200.68841648 175.24566078 C203.7514959 174.0699054 206.81971932 172.90767174 209.88671875 171.7421875 C210.99151077 171.31205353 212.0963028 170.88191956 213.23457336 170.43875122 C221.10275228 167.46890824 226.95743836 166.19814003 234.94921875 169.44140625 C238.62672831 171.5307251 240.93139937 174.73779874 242.8125 178.5 C242.91727457 181.43203165 242.96029336 184.34067118 242.95967102 187.27323914 C242.96334771 188.19289186 242.9670244 189.11254458 242.9708125 190.06006557 C242.98187988 193.16073611 242.98569835 196.26137318 242.98950195 199.36206055 C242.99576432 201.57757169 243.00241092 203.79308178 243.00941467 206.0085907 C243.02684609 212.04180406 243.03738238 218.07500948 243.0456202 224.1082418 C243.05076607 227.87560207 243.056842 231.64295985 243.06313133 235.41031837 C243.08000462 245.84080897 243.09463915 256.2712984 243.10188007 266.70180035 C243.10378998 269.40919178 243.10571031 272.11658321 243.10766602 274.82397461 C243.10814976 275.49688637 243.1086335 276.16979813 243.1091319 276.86310116 C243.11743 287.76086126 243.14276229 298.65851151 243.17524669 309.55622365 C243.20832546 320.74456922 243.22599691 331.93287504 243.22952431 343.12127334 C243.23187743 349.40316934 243.24087196 355.68489182 243.26598549 361.96674156 C243.28923207 367.87728142 243.29351303 373.78753308 243.28322411 379.69810677 C243.2827278 381.86729261 243.28907607 384.03649246 243.30278015 386.20563507 C243.3204483 389.16805076 243.31341749 392.12942655 243.30024719 395.09184265 C243.31670106 396.37824293 243.31670106 396.37824293 243.33348733 397.69063109 C243.2718942 403.43263419 242.09133808 406.76147148 238.8125 411.5 C232.6860974 416.73968644 225.45866048 416.91726834 217.8125 416.5 C210.75694577 415.78028627 205.00982787 413.38940719 199.8125 408.5 C196.68169613 404.42558059 194.22781417 400.02185815 191.8125 395.5 C191.11012207 394.18805664 191.11012207 394.18805664 190.39355469 392.84960938 C187.1490264 386.7591129 183.96150141 380.64037858 180.8125 374.5 C166.44582864 380.17399666 152.15093503 385.97663313 137.96728516 392.0949707 C136.4076001 392.76338989 136.4076001 392.76338989 134.81640625 393.4453125 C133.89674072 393.84250488 132.9770752 394.23969727 132.02954102 394.64892578 C129.8125 395.5 129.8125 395.5 127.8125 395.5 C128.1425 396.428125 128.4725 397.35625 128.8125 398.3125 C131.17325196 406.73647822 130.32461764 415.53478225 126.8125 423.5 C121.6024912 432.60534249 113.37399388 438.36727096 103.375 441.1875 C97.69502457 441.88017993 92.40881122 441.61926224 86.8125 440.5 C86.60496094 441.20125 86.39742188 441.9025 86.18359375 442.625 C83.31204398 451.46793152 79.4754419 457.57059997 71.375 462.375 C64.98692252 465.59615282 58.94746341 466.79729014 51.8125 466.5 C51.68294922 467.35271484 51.68294922 467.35271484 51.55078125 468.22265625 C50.05878229 476.4218065 47.12173697 481.11677424 40.25 485.875 C35.09475672 489.21652684 31.4067815 489.51357802 25.3125 489.5625 C20.76037123 489.71313414 20.76037123 489.71313414 17.21484375 492.16796875 C16.25085458 494.2481559 15.51959298 496.32083042 14.8125 498.5 C11.23829217 503.98896202 5.97938989 507.44437004 -0.1875 509.5 C-14.62168285 510.57832743 -22.88842261 508.33061555 -34 498.9375 C-35.07209258 498.00221923 -36.1412228 497.06352941 -37.20703125 496.12109375 C-39.81134343 493.83080086 -42.46093767 491.64193898 -45.1875 489.5 C-45.62320313 489.89832031 -46.05890625 490.29664063 -46.5078125 490.70703125 C-52.69817977 496.21404629 -58.11062649 499.10947127 -66.4375 499.75 C-74.56548781 499.20813415 -81.34301661 496.22574671 -87.1875 490.5 C-88.81457175 488.21751624 -89.96775234 486.04114096 -91.1875 483.5 C-92.07050781 483.54640625 -92.95351562 483.5928125 -93.86328125 483.640625 C-104.61343315 483.96393784 -113.56609458 482.6284179 -121.74609375 475.2265625 C-123.35596058 473.29821253 -124.12372955 471.41940922 -125.125 469.125 C-126.18865062 466.95397742 -126.18865062 466.95397742 -128.1875 465.5 C-132.26978182 465.03743121 -136.14966184 465.19247335 -140.2421875 465.3828125 C-149.508301 465.65804359 -154.3577204 462.00941544 -161.0234375 455.8515625 C-163.1875 453.5 -163.1875 453.5 -164.51171875 450.70703125 C-165.06472656 449.97871094 -165.61773437 449.25039063 -166.1875 448.5 C-168.85321735 448.28068838 -170.99989688 448.31756386 -173.625 448.5625 C-181.68233728 448.92749829 -187.55344379 447.37950926 -194.1875 442.5 C-196.7204731 440.05263434 -198.50583715 437.58599884 -200.1875 434.5 C-200.52394531 433.91863281 -200.86039062 433.33726562 -201.20703125 432.73828125 C-204.33700765 426.14960947 -203.37740579 418.58981611 -203.1875 411.5 C-207.4775 409.52 -211.7675 407.54 -216.1875 405.5 C-216.8475 407.48 -217.5075 409.46 -218.1875 411.5 C-222.28688023 420.16760454 -226.69409263 426.67041542 -235.1875 431.5 C-242.59053428 434.05277044 -251.6472652 435.18604001 -259.125 432.3125 C-263.76228998 429.56798144 -267.09924503 426.50024936 -269.1875 421.5 C-269.44049966 419.45954961 -269.44049966 419.45954961 -269.44476891 417.24795818 C-269.4512178 416.40132915 -269.45766669 415.55470012 -269.464311 414.68241566 C-269.4612138 413.75723238 -269.4581166 412.8320491 -269.45492554 411.87882996 C-269.46172221 410.39878234 -269.46172221 410.39878234 -269.46865618 408.88883477 C-269.48134499 405.57322218 -269.47967691 402.2577729 -269.47802734 398.94213867 C-269.48400981 396.568698 -269.4908147 394.19525927 -269.49838257 391.82182312 C-269.51423961 386.03809608 -269.52049223 380.25441883 -269.52160732 374.47067114 C-269.52255776 369.76877987 -269.52666781 365.06690205 -269.53300858 360.36501503 C-269.55062222 347.03241856 -269.55984734 333.6998543 -269.55834763 320.36724611 C-269.55826772 319.64849386 -269.5581878 318.92974161 -269.55810547 318.18920898 C-269.55802371 317.46957839 -269.55794195 316.74994779 -269.55785771 316.00851021 C-269.55704494 304.34782421 -269.57617996 292.68726743 -269.6043822 281.0266188 C-269.6331158 269.05170774 -269.64692221 257.07685968 -269.64519465 245.10191327 C-269.64453087 238.37964091 -269.6500175 231.65750398 -269.67155075 224.93526268 C-269.69089425 218.61265958 -269.69108397 212.29034268 -269.67651749 205.96772957 C-269.67442344 203.64696714 -269.67916554 201.32618699 -269.6912384 199.00545502 C-269.70665212 195.83733926 -269.69740755 192.67021506 -269.68197632 189.50212097 C-269.69226344 188.58362985 -269.70255057 187.66513873 -269.71314943 186.71881455 C-269.64945105 180.80126232 -268.61600821 177.35919332 -265.1875 172.5 C-261.2899426 168.97363854 -257.492074 167.51059817 -252.3079834 167.2482605 C-248.55267082 167.55121373 -245.39592278 168.69392935 -241.93164062 170.07470703 C-241.23621407 170.34385988 -240.54078751 170.61301273 -239.82428741 170.89032173 C-237.60830306 171.7510194 -235.39771998 172.62461855 -233.1875 173.5 C-231.77366416 174.0542241 -230.35968448 174.60808142 -228.94555664 175.16156006 C-224.50995165 176.90300057 -220.08291144 178.66566462 -215.65625 180.4296875 C-214.04249389 181.07143532 -212.42868257 181.71304432 -210.81481934 182.35452271 C-206.62561204 184.02006979 -202.43714281 185.68746477 -198.24884033 187.35528564 C-193.19216779 189.36843537 -188.13455359 191.37921812 -183.07710266 193.39041138 C-175.44652394 196.42515764 -167.81712509 199.46285208 -160.1875 202.5 C-159.8575 186.99 -159.5275 171.48 -159.1875 155.5 C-163.1475 157.48 -163.1475 157.48 -167.1875 159.5 C-174.87124668 161.46903081 -182.31800032 160.51213983 -189.3125 156.875 C-195.49462412 151.7680279 -200.66620997 146.51893187 -201.5234375 138.265625 C-201.61682527 129.86072597 -201.44633668 122.8642562 -195.33325195 116.59985352 C-189.77742285 111.68529925 -183.98714626 107.41419378 -177.8125 103.3125 C-175.86052671 101.99892134 -173.90870645 100.68511526 -171.95703125 99.37109375 C-170.98717285 98.72124512 -170.01731445 98.07139648 -169.01806641 97.40185547 C-164.82719325 94.5860109 -160.66322521 91.73149082 -156.5 88.875 C-154.94411774 87.80973906 -153.38812847 86.7446344 -151.83203125 85.6796875 C-151.06713379 85.15600586 -150.30223633 84.63232422 -149.51416016 84.09277344 C-145.57247795 81.39439623 -141.6299411 78.69726826 -137.6875 76 C-136.10416268 74.9166725 -134.52082934 73.83333917 -132.9375 72.75 C-110.77083333 57.58333333 -88.60416667 42.41666667 -66.4375 27.25 C-65.6530249 26.71318604 -64.8685498 26.17637207 -64.06030273 25.62329102 C-62.4845493 24.54528046 -60.90854209 23.46764077 -59.33227539 22.39038086 C-55.2557583 19.60367124 -51.18449256 16.80971624 -47.12109375 14.00390625 C-15.7675303 -7.61546948 -15.7675303 -7.61546948 0 0 Z M-25.875 21.6875 C-26.79909668 22.32099365 -27.72319336 22.9544873 -28.67529297 23.60717773 C-30.58981056 24.92138603 -32.50027667 26.2415151 -34.40673828 27.56738281 C-36.96891317 29.34808311 -39.54149162 31.11186481 -42.12109375 32.8671875 C-46.03595007 35.53175151 -49.94186573 38.20901773 -53.84472656 40.89111328 C-57.78858225 43.59953439 -61.73835638 46.29929795 -65.6875 49 C-67.27086127 50.0832925 -68.85419462 51.16662582 -70.4375 52.25 C-136.9375 97.75 -136.9375 97.75 -139.31445312 99.3762207 C-140.8914199 100.45527482 -142.46824377 101.53453781 -144.04492188 102.61401367 C-148.09949312 105.389584 -152.15678546 108.16103993 -156.21875 110.92578125 C-171.09881813 119.78686711 -171.09881813 119.78686711 -183.1875 131.5 C-183.65106672 135.13127267 -183.68395069 136.81967869 -181.5 139.8125 C-178.90124006 141.70889239 -177.36515525 142.16750991 -174.1875 142.5 C-169.01682986 140.7146554 -164.47746871 137.03031704 -160.12109375 133.80078125 C-154.32249147 129.55755849 -148.37503557 125.57595951 -142.375 121.625 C-135.90810724 117.34260236 -129.46530349 113.05584755 -123.1875 108.5 C-115.93627237 103.23930544 -108.45920639 98.33039714 -100.9921875 93.3828125 C-94.56241835 89.11241444 -88.25842553 84.72859295 -82.01171875 80.1953125 C-75.78793968 75.74950774 -69.36166483 71.58862048 -62.97460938 67.3828125 C-57.20592168 63.57006452 -51.57536865 59.62311465 -46.00219727 55.53076172 C-41.00865575 51.92799666 -35.87864745 48.53131663 -30.75 45.125 C-29.68845703 44.41472656 -28.62691406 43.70445313 -27.53320312 42.97265625 C-26.51291016 42.29332031 -25.49261719 41.61398438 -24.44140625 40.9140625 C-23.52689697 40.3051416 -22.6123877 39.6962207 -21.67016602 39.06884766 C-15.99236319 35.48092741 -15.99236319 35.48092741 -11.890625 35.578125 C-7.41782928 36.69160579 -4.60121807 38.54441318 -0.9375 41.25 C0.4773709 42.25850546 1.89275735 43.26628794 3.30859375 44.2734375 C4.41243408 45.06766113 4.41243408 45.06766113 5.53857422 45.87792969 C9.35962868 48.60362067 13.24484984 51.23446979 17.125 53.875 C18.7398445 54.97878468 20.3544261 56.08295406 21.96875 57.1875 C22.77183594 57.73664062 23.57492187 58.28578125 24.40234375 58.8515625 C26.75825376 60.46289803 29.11360814 62.07504199 31.46875 63.6875 C39.91080391 69.46695761 48.35839539 75.23818214 56.8125 81 C66.04422711 87.29179937 75.26744319 93.59591644 84.48583984 99.90722656 C86.8405841 101.51922567 89.19562505 103.13079031 91.55078125 104.7421875 C92.33606201 105.27948486 93.12134277 105.81678223 93.93041992 106.37036133 C95.51772644 107.45627616 97.1051287 108.54205104 98.69262695 109.62768555 C102.62844564 112.31959316 106.56235047 115.01420982 110.4921875 117.71484375 C113.61704345 119.86212564 116.74771351 122.0005175 119.8828125 124.1328125 C123.41799208 126.53788193 126.9270594 128.9774881 130.4296875 131.4296875 C132.30692267 132.72449347 134.18451896 134.01877607 136.0625 135.3125 C137.36646729 136.23857056 137.36646729 136.23857056 138.69677734 137.18334961 C143.49556845 140.45967212 146.77918246 142.52102297 152.8125 141.5 C155.49088573 139.56873898 155.49088573 139.56873898 156.8125 136.5 C157.3765591 133.01634999 157.3765591 133.01634999 155.8125 129.5 C154.01348649 127.75513726 154.01348649 127.75513726 151.78515625 126.15625 C150.56493774 125.24286865 150.56493774 125.24286865 149.32006836 124.31103516 C145.56778066 121.6010293 141.77398958 118.96422233 137.9375 116.375 C136.26296732 115.2370579 134.58848971 114.09903477 132.9140625 112.9609375 C132.0674707 112.38698242 131.22087891 111.81302734 130.34863281 111.22167969 C126.32866797 108.49268546 122.32099217 105.74580466 118.3125 103 C116.72923061 101.91657322 115.14589714 100.83324007 113.5625 99.75 C28.0625 41.25 28.0625 41.25 25.68408203 39.62255859 C24.11226985 38.54717628 22.54033124 37.47197874 20.96826172 36.39697266 C16.83256003 33.56854781 12.6995752 30.73625612 8.5703125 27.8984375 C7.71115234 27.30869141 6.85199219 26.71894531 5.96679688 26.11132812 C4.32405492 24.98360797 2.68208263 23.85476554 1.04101562 22.72460938 C-0.40966489 21.7293897 -1.86415033 20.73968237 -3.32324219 19.75683594 C-4.84376148 18.7317399 -6.34988076 17.68531084 -7.8515625 16.6328125 C-15.13802969 13.09924146 -19.97828345 17.53966276 -25.875 21.6875 Z M-20.9375 59.5 C-27.54137446 64.39497712 -34.32956247 68.96912835 -41.1875 73.5 C-47.59140663 77.74182857 -53.96969573 81.98904396 -60.1875 86.5 C-66.40535154 91.01099034 -72.78426238 95.25709698 -79.1875 99.5 C-86.59029529 104.40680556 -93.89854659 109.38100156 -101.0859375 114.59765625 C-108.35579392 119.80181431 -115.82412345 124.73466855 -123.24121094 129.72583008 C-123.83477386 130.126371 -124.42833679 130.52691193 -125.03988647 130.93959045 C-126.66926222 132.03907846 -128.30015609 133.13631575 -129.93115234 134.23339844 C-131.00574707 134.98137695 -132.0803418 135.72935547 -133.1875 136.5 C-133.89506439 136.85003586 -134.60262878 137.20007172 -135.33163452 137.56071472 C-137.87237052 138.99599721 -139.41770704 140.16383866 -141.1875 142.5 C-142.3810171 147.68167036 -142.26628915 152.80094935 -142.1796875 158.08203125 C-142.17999783 159.62131524 -142.18298152 161.16060078 -142.18850708 162.69987488 C-142.19127136 165.92244778 -142.16624252 169.14323638 -142.12060547 172.36547852 C-142.0639709 176.47493581 -142.06927176 180.58141533 -142.09478569 184.69109058 C-142.10877233 187.86997935 -142.09303827 191.04819299 -142.06827164 194.22699547 C-142.05930253 195.74067269 -142.05851624 197.25442321 -142.06640244 198.76810646 C-142.09198022 208.00079693 -141.24059617 214.26084445 -135.1875 221.5 C-132.43029916 227.39038362 -132.06320941 233.99485876 -134.05078125 240.19140625 C-134.73766736 241.86740837 -135.45632233 243.53095881 -136.21484375 245.17578125 C-137.23281471 247.60828213 -137.75125453 249.90548745 -138.1875 252.5 C-122.35178415 261.36800088 -106.83268389 262.69221513 -89.4375 259.125 C-87.213842 258.67819021 -84.98988414 258.23287008 -82.765625 257.7890625 C-81.67805908 257.56500732 -80.59049316 257.34095215 -79.4699707 257.11010742 C-77.26991334 256.70118638 -75.05497794 256.36590398 -72.83276367 256.1027832 C-66.46100692 255.46623572 -66.46100692 255.46623572 -61.51953125 251.71484375 C-61.01808594 250.63332031 -60.51664062 249.55179688 -60 248.4375 C-59.47019531 247.35339844 -58.94039063 246.26929688 -58.39453125 245.15234375 C-57.99621094 244.27707031 -57.59789062 243.40179688 -57.1875 242.5 C-56.8575 242.17 -56.5275 241.84 -56.1875 241.5 C-56.07974081 239.62972403 -56.04122891 237.75542289 -56.02978516 235.88208008 C-56.01952301 234.68025589 -56.00926086 233.4784317 -55.99868774 232.2401886 C-55.99138641 230.92987167 -55.98408508 229.61955475 -55.9765625 228.26953125 C-55.963603 226.91769082 -55.94978739 225.56585834 -55.93515015 224.21403503 C-55.87349889 218.46266912 -55.81960057 212.71132102 -55.78613281 206.9597168 C-55.7651231 203.44408493 -55.72976224 199.92883832 -55.68537521 196.41342735 C-55.66440754 194.42721642 -55.65917475 192.44085945 -55.65420532 190.45454407 C-55.62935562 188.62816658 -55.62935562 188.62816658 -55.60400391 186.76489258 C-55.59591705 185.69757401 -55.5878302 184.63025543 -55.57949829 183.53059387 C-54.96203646 178.75690966 -53.05488335 174.70516611 -49.25 171.6875 C-44.91095776 168.58818412 -41.78310355 168.37478866 -36.52026367 168.33886719 C-35.38195602 168.32925964 -34.24364838 168.3196521 -33.07084656 168.30975342 C-31.23173454 168.3033786 -31.23173454 168.3033786 -29.35546875 168.296875 C-28.09035965 168.29117493 -26.82525055 168.28547485 -25.52180481 168.27960205 C-22.84449672 168.27015534 -20.16730062 168.26325676 -17.48999023 168.25976562 C-14.07380301 168.25428853 -10.65801587 168.23026912 -7.24195385 168.20179367 C-3.96732284 168.17859164 -0.69267043 168.17671267 2.58203125 168.171875 C3.80203323 168.1595282 5.02203522 168.1471814 6.27900696 168.13446045 C13.25992921 168.15271371 19.0402263 168.2521231 24.5546875 173 C27.78840277 177.28188505 28.975133 179.98815686 28.71630859 185.30004883 C28.48376955 190.78265622 28.35932727 196.26005281 28.27148438 201.74682617 C28.2159352 204.10524392 28.12821732 206.46314474 28.00683594 208.8190918 C26.99921465 221.9924107 26.99921465 221.9924107 31.59280396 233.88345337 C36.05323371 238.15673136 41.13745884 241.25539362 46.53015137 244.2180481 C49.39777031 245.82873522 51.95517458 247.72921087 54.54296875 249.75390625 C55.30287109 250.31787109 56.06277344 250.88183594 56.84570312 251.46289062 C58.32642735 252.56235856 59.80550578 253.66404538 61.28320312 254.76757812 C71.59350871 262.40451147 78.56259915 266.65573237 91.8125 265.5 C96.40347514 264.35702957 100.73058566 262.74103507 105.125 261 C106.8255957 260.35611328 106.8255957 260.35611328 108.56054688 259.69921875 C111.31910459 258.65166519 114.06864649 257.58535363 116.8125 256.5 C115.18155225 252.33335816 113.28321326 248.35758267 111.25 244.375 C107.27465834 236.58624506 105.01523854 229.65538769 107.56640625 220.91796875 C108.96925751 217.60063811 110.05755143 215.13622415 112.8483429 212.78431702 C115.44455671 209.76491731 115.38143963 207.92881313 115.50463867 203.97827148 C115.52931717 203.3321138 115.55399567 202.68595612 115.579422 202.0202179 C115.65299471 199.88711508 115.69497721 197.75515313 115.73046875 195.62109375 C115.74552271 194.88827745 115.76057667 194.15546116 115.77608681 193.40043831 C115.85358048 189.51689607 115.90573506 185.63392382 115.93823242 181.74975586 C115.9691526 178.55134305 116.04544701 175.35919588 116.16381836 172.1628418 C117.76365051 154.00634284 117.76365051 154.00634284 111.59130859 138.03125 C108.54400045 135.49225992 105.33089688 133.76534797 101.66270447 132.28862 C98.87686134 131.10119902 96.51954861 129.37690133 94.0625 127.625 C93.09957031 126.99207031 92.13664063 126.35914063 91.14453125 125.70703125 C86.98370937 122.95103552 82.86627242 120.13444634 78.75 117.3125 C77.93950195 116.7570752 77.12900391 116.20165039 76.29394531 115.62939453 C74.62925916 114.48831595 72.96470962 113.34703805 71.30029297 112.20556641 C67.30637278 109.4674382 63.30931462 106.73390062 59.3125 104 C57.73306096 102.91928831 56.1536339 101.8385591 54.57421875 100.7578125 C51.36882487 98.56461356 48.1630569 96.37196282 44.95703125 94.1796875 C36.92780773 88.68873464 28.90263565 83.19209236 20.89013672 77.67675781 C17.21101747 75.14534677 13.52758527 72.62039956 9.83984375 70.1015625 C8.99357422 69.52341797 8.14730469 68.94527344 7.27539062 68.34960938 C5.64041796 67.23307352 4.00502823 66.11714804 2.36914062 65.00195312 C1.61697266 64.48826172 0.86480469 63.97457031 0.08984375 63.4453125 C-0.99514404 62.70716309 -0.99514404 62.70716309 -2.10205078 61.95410156 C-3.473307 60.99797864 -4.82689128 60.01590529 -6.15966797 59.00683594 C-12.32690826 54.34000109 -14.9795606 54.99449359 -20.9375 59.5 Z M-38.1875 185.5 C-38.1875 197.71 -38.1875 209.92 -38.1875 222.5 C-33.8975 220.52 -29.6075 218.54 -25.1875 216.5 C-11.95186623 213.2955834 -1.2992254 214.92407489 11.8125 218.5 C11.8125 207.61 11.8125 196.72 11.8125 185.5 C-4.6875 185.5 -21.1875 185.5 -38.1875 185.5 Z M-251.1875 186.5 C-251.1875 262.07 -251.1875 337.64 -251.1875 415.5 C-242.74914706 415.4198464 -242.74914706 415.4198464 -239.52348328 412.20707703 C-236.05870622 407.21851511 -233.49090063 401.61947559 -230.81176758 396.18676758 C-230.18756431 394.93559154 -229.56264633 393.68477186 -228.93707275 392.4342804 C-227.24576012 389.04854131 -225.56429325 385.65799748 -223.88445497 382.26655412 C-222.11346281 378.69566742 -220.33295973 375.12952972 -218.5533905 371.56291199 C-215.17698828 364.79252471 -211.8084113 358.01827751 -208.44295472 351.24244374 C-202.44269934 339.16263185 -196.42777492 327.09011973 -190.41217536 315.01794356 C-188.30856165 310.79566979 -186.2078816 306.57195341 -184.10966623 302.34699458 C-177.27585894 288.58874051 -170.39153885 274.86760891 -163.15379333 261.31580925 C-160.76098563 256.81936681 -158.43275209 252.29051076 -156.125 247.75 C-155.65384766 246.84507812 -155.18269531 245.94015625 -154.69726562 245.0078125 C-152.22374009 240.12482396 -150.30538157 236.01963103 -150.1875 230.5 C-151.10243953 227.91003833 -151.76515134 226.76428808 -154.11228943 225.29554749 C-155.29311852 224.79939186 -155.29311852 224.79939186 -156.49780273 224.29321289 C-157.3944313 223.90942978 -158.29105988 223.52564667 -159.21485901 223.13023376 C-160.19454147 222.72760818 -161.17422394 222.3249826 -162.18359375 221.91015625 C-163.20650009 221.47816422 -164.22940643 221.04617218 -165.28330994 220.60108948 C-168.5778814 219.21693879 -171.88100523 217.85540166 -175.1875 216.5 C-176.25027161 216.0629071 -177.31304321 215.62581421 -178.40802002 215.17547607 C-186.00677805 212.05801824 -193.62623283 208.99317542 -201.25 205.9375 C-204.56617219 204.60513765 -207.88196883 203.27184569 -211.19760132 201.93814087 C-213.36169149 201.06786272 -215.52609444 200.19836188 -217.69082642 199.3296814 C-223.01552979 197.19056454 -228.33224659 195.03427489 -233.63623047 192.84423828 C-234.65551132 192.42384781 -235.67479218 192.00345734 -236.72496033 191.57032776 C-238.65445064 190.77295529 -240.5827073 189.97258907 -242.50953674 189.16880798 C-243.36160202 188.81669754 -244.2136673 188.4645871 -245.09155273 188.10180664 C-245.83767319 187.7911879 -246.58379364 187.48056915 -247.3525238 187.16053772 C-249.17609156 186.38710164 -249.17609156 186.38710164 -251.1875 186.5 Z M219.08544922 187.28149414 C217.56065193 187.87033386 217.56065193 187.87033386 216.00505066 188.47106934 C214.3280584 189.12154236 214.3280584 189.12154236 212.6171875 189.78515625 C211.45766068 190.23322632 210.29813385 190.68129639 209.10346985 191.14294434 C203.34729085 193.36796768 197.59341407 195.59892212 191.83944988 197.82966518 C188.57419081 199.09538279 185.30862839 200.36031629 182.04296875 201.625 C181.39235033 201.8770627 180.74173191 202.1291254 180.07139778 202.38882637 C171.56213004 205.68414111 163.03688924 208.93286677 154.48828125 212.125 C151.82211979 213.12652995 149.15629744 214.12895772 146.49053955 215.13156128 C144.83936365 215.74875428 143.1861698 216.36057716 141.53094482 216.96682739 C139.25890274 217.79924384 136.99432192 218.64952087 134.73046875 219.50390625 C133.75319572 219.8526178 133.75319572 219.8526178 132.75617981 220.20837402 C128.5523147 221.82167378 126.06657599 223.5684381 123.8125 227.5 C123.92729513 231.55246956 125.78661615 234.68475017 127.69921875 238.19921875 C128.30080811 239.31280762 128.90239746 240.42639648 129.5222168 241.57373047 C130.18137549 242.77837634 130.84063928 243.9829647 131.5 245.1875 C132.18008215 246.44122271 132.85951603 247.69529727 133.53833008 248.94970703 C134.93782907 251.53408103 136.34066659 254.1165992 137.74609375 256.69775391 C140.26953037 261.33556819 142.76590537 265.9878223 145.26293945 270.63989258 C150.56204397 280.5089627 155.90589289 290.35295825 161.27856445 300.18212891 C168.11468558 312.69903398 174.85114536 325.26982441 181.60351562 337.83203125 C196.17714869 369.44317298 196.17714869 369.44317298 215.8125 397.5 C218.7825 397.83 221.7525 398.16 224.8125 398.5 C224.8125 328.21 224.8125 257.92 224.8125 185.5 C222.83482437 185.5 220.89765976 186.5799824 219.08544922 187.28149414 Z M-40.04603577 248.89926147 C-43.99465741 253.89009392 -47.1896783 259.08390768 -49.96875 264.80078125 C-50.30645416 265.48602371 -50.64415833 266.17126617 -50.99209595 266.87727356 C-54.6336099 274.31805109 -58.09169393 281.84382279 -61.51708984 289.38598633 C-62.57980357 291.72559452 -63.64700079 294.06311963 -64.71484375 296.40039062 C-65.40129677 297.90613373 -66.0875042 299.41198882 -66.7734375 300.91796875 C-67.24527969 301.95234322 -67.24527969 301.95234322 -67.72665405 303.00761414 C-71.65177731 311.39454391 -71.65177731 311.39454391 -72.1875 320.5 C-70.66757896 323.68459646 -68.90454041 326.23579966 -66.1875 328.5 C-61.08288485 330.20153838 -56.91588981 330.34655827 -52.125 328 C-49.16511224 325.48094659 -46.73430975 322.87270516 -44.23828125 319.90625 C-41.79288251 317.03698215 -39.24556317 314.26823777 -36.6875 311.5 C-32.44743441 306.89481964 -28.2845516 302.2326324 -24.1875 297.5 C-22.87573285 295.99935908 -21.56324214 294.49935031 -20.25 293 C-19.66347656 292.3296875 -19.07695312 291.659375 -18.47265625 290.96875 C-18.04855469 290.4840625 -17.62445313 289.999375 -17.1875 289.5 C-18.17492957 287.48764353 -19.14545391 285.56417561 -20.375 283.6875 C-21.62009642 280.33531733 -21.05684141 277.91526984 -20.1875 274.5 C-17.85729843 271.72168274 -16.48602354 271.52774513 -12.8671875 271.19140625 C-8.52465933 271.55558855 -7.1588777 272.51923879 -3.9375 275.375 C-2.99777344 276.19484375 -2.05804688 277.0146875 -1.08984375 277.859375 C-0.13207031 278.73078125 0.82570313 279.6021875 1.8125 280.5 C2.75996094 281.35078125 3.70742188 282.2015625 4.68359375 283.078125 C6.55333205 284.76892857 8.41669517 286.46681021 10.2734375 288.171875 C14.7729122 292.29754719 19.38594855 296.28605473 24.03125 300.24609375 C25.22930775 301.2680638 26.4272201 302.29020431 27.625 303.3125 C28.23102051 303.82965576 28.83704102 304.34681152 29.46142578 304.87963867 C33.20282262 308.0847653 36.87348478 311.35193729 40.5 314.6875 C43.95265696 317.85830742 47.46780966 320.88035031 51.125 323.8125 C56.18086567 327.88748445 60.89437223 332.25231994 65.61816406 336.70019531 C69.93441437 340.74239798 74.41735366 344.495808 79.03515625 348.19140625 C82.23693188 350.85279781 85.27480438 353.65466505 88.3125 356.5 C93.10430796 360.98693888 98.03502406 365.20826932 103.15625 369.3203125 C107.5114997 372.89417917 111.66220857 376.69181502 115.8125 380.5 C122.22740752 378.45136707 128.47096496 376.10581899 134.703125 373.55859375 C135.61076599 373.19024918 136.51840698 372.8219046 137.45355225 372.44239807 C140.3242742 371.27671762 143.19341406 370.10720055 146.0625 368.9375 C148.00249855 368.14882869 149.94260181 367.36041491 151.8828125 366.57226562 C155.4332747 365.12978273 158.98305419 363.68564346 162.53222656 362.23999023 C165.6213897 360.98250453 168.71347925 359.73304994 171.8125 358.5 C170.19708264 352.73740005 167.39547449 347.81774477 164.5 342.625 C163.40842296 340.64607112 162.31729245 338.66689589 161.2265625 336.6875 C160.66227539 335.6665625 160.09798828 334.645625 159.51660156 333.59375 C156.77615371 328.61854151 154.07605756 323.62166923 151.375 318.625 C150.84084473 317.63886719 150.30668945 316.65273438 149.75634766 315.63671875 C146.9350033 310.42808301 144.12016708 305.21602151 141.3125 300 C140.44902954 298.39874268 140.44902954 298.39874268 139.56811523 296.76513672 C138.47714467 294.74176781 137.38797441 292.71742665 136.30102539 290.69189453 C132.97143472 284.52177532 129.47227781 278.48015659 125.8125 272.5 C125.27471924 272.69110352 124.73693848 272.88220703 124.18286133 273.07910156 C118.90498926 274.95082318 113.61852938 276.79600733 108.32519531 278.62353516 C106.24887308 279.34778669 104.18169383 280.09819212 102.1171875 280.85546875 C91.22728722 284.63554692 79.83650918 285.23410418 68.9453125 281.06640625 C62.07549367 277.63149684 55.97769139 273.04753064 49.8125 268.5 C48.27477679 267.37494914 46.73701552 266.24995031 45.19921875 265.125 C42.00433042 262.78028189 38.81649912 260.4263079 35.6328125 258.06640625 C-1.85499904 228.91032763 -1.85499904 228.91032763 -40.04603577 248.89926147 Z M-147.1875 268.5 C-154.69875732 282.61858463 -161.94778902 296.85757345 -169.1015625 311.16015625 C-170.20822639 313.37026225 -171.31494744 315.58033964 -172.42172241 317.79039001 C-174.71728738 322.3755899 -177.01124507 326.96158969 -179.30419922 331.5480957 C-182.24800939 337.43581883 -185.19737042 343.32074303 -188.14805031 349.20502567 C-190.42404219 353.745937 -192.69643326 358.28864288 -194.96778488 362.83187675 C-196.05500411 365.00513352 -197.14352364 367.17774028 -198.23335648 369.34968758 C-199.74479956 372.3628447 -201.25121927 375.37846018 -202.75634766 378.39477539 C-203.20817413 379.29280884 -203.66000061 380.19084229 -204.1255188 381.11608887 C-204.5317749 381.93279556 -204.93803101 382.74950226 -205.3565979 383.59095764 C-205.71232691 384.30187089 -206.06805592 385.01278414 -206.43456459 385.74524021 C-207.31893849 387.48807926 -207.31893849 387.48807926 -207.1875 389.5 C-205.42244565 390.36604534 -203.65021926 391.21748642 -201.875 392.0625 C-200.39580078 392.77599609 -200.39580078 392.77599609 -198.88671875 393.50390625 C-196.14796471 394.83410703 -196.14796471 394.83410703 -193.1875 393.5 C-192.0085785 391.40683098 -192.0085785 391.40683098 -191 388.875 C-187.65928163 381.90436675 -183.03983345 377.31050004 -175.75 374.5625 C-167.8366935 372.37717865 -160.6318672 373.04127404 -153.1875 376.5 C-150.70254351 378.03765263 -148.49003904 379.68736288 -146.1875 381.5 C-144.18850837 380.50718233 -142.19739505 379.5052131 -140.22265625 378.46484375 C-132.49402165 374.43983207 -124.99984226 373.1599322 -116.375 375.1484375 C-108.28930931 377.77628697 -101.82176697 381.88174314 -97.8125 389.5625 C-96.35276224 392.78892972 -95.28508181 396.13567314 -94.1875 399.5 C-93.14851563 399.57476562 -92.10953125 399.64953125 -91.0390625 399.7265625 C-81.26537967 400.58307972 -73.47437511 402.04403506 -66.35546875 409.390625 C-63.59922998 412.79736295 -62.08629488 415.62586637 -61.0625 419.875 C-60.51794245 421.9235014 -60.51794245 421.9235014 -59.1875 423.5 C-56.20869882 424.43399246 -53.36755599 424.76407617 -50.265625 425.09375 C-44.38241252 425.87021459 -40.52861072 428.15888928 -36.375 432.3125 C-30.95978953 440.20323525 -29.91639458 446.93222198 -31.1875 456.5 C-32.38443929 460.42475713 -34.08861414 464.04581901 -35.875 467.734375 C-37.33041482 470.29093125 -37.33041482 470.29093125 -37.1875 472.5 C-35.80511821 473.8163013 -35.80511821 473.8163013 -33.96875 475.109375 C-33.28296875 475.61726562 -32.5971875 476.12515625 -31.890625 476.6484375 C-31.16359375 477.17695313 -30.4365625 477.70546875 -29.6875 478.25 C-28.28125 479.28645833 -26.875 480.32291667 -25.46875 481.359375 C-24.76339111 481.87258301 -24.05803223 482.38579102 -23.33129883 482.91455078 C-21.87716401 483.98995808 -20.43974626 485.08827222 -19.01831055 486.20654297 C-18.32519775 486.74939941 -17.63208496 487.29225586 -16.91796875 487.8515625 C-15.99213989 488.59140381 -15.99213989 488.59140381 -15.04760742 489.34619141 C-11.59276003 491.48920345 -9.16001723 491.15123233 -5.1875 490.5 C-2.3774654 488.70636089 -0.67809532 487.48119065 0.8125 484.5 C1.35098965 479.40300887 1.51487016 477.49691249 -1.48828125 473.234375 C-2.47241615 472.22001967 -3.47706136 471.22521011 -4.5 470.25 C-13.04642527 461.64843651 -13.04642527 461.64843651 -13.4375 458.46484375 C-12.99112876 454.84505201 -12.74952985 453.04549956 -10.0625 450.4375 C-6.13529041 449.15688818 -4.16581164 449.28627781 -0.1875 450.5 C5.79645057 454.5281572 10.74518874 460.35545232 15.77612305 465.49926758 C19.54437978 469.4313061 19.54437978 469.4313061 24.625 470.8125 C28.5432645 470.42835642 30.02543267 469.20743683 32.8125 466.5 C34.22908066 463.66683869 34.09833304 461.64027454 33.8125 458.5 C32.38860285 456.12885805 32.38860285 456.12885805 30.21875 454.03125 C29.39632812 453.17144531 28.57390625 452.31164062 27.7265625 451.42578125 C26.75680266 450.44893548 25.7853375 449.47378078 24.8125 448.5 C24.00474121 447.68184814 24.00474121 447.68184814 23.18066406 446.84716797 C18.92177577 442.53386458 14.62167486 438.26298156 10.3125 434 C7.77838371 431.49245208 5.24760051 428.98160698 2.71875 426.46875 C1.85014343 425.61259094 1.85014343 425.61259094 0.96398926 424.73913574 C-4.11162247 419.69507106 -4.11162247 419.69507106 -4.4375 414.5625 C-4.39137385 412.01633665 -4.35407378 410.78687707 -3.0625 408.5625 C-0.34232571 407.0210679 1.67961977 406.62285805 4.8125 406.5 C10.87625448 408.72994668 14.7054762 413.05787502 19.09765625 417.59765625 C20.2657206 418.78276039 20.2657206 418.78276039 21.4573822 419.99180603 C23.93728796 422.50825937 26.40725973 425.03411901 28.875 427.5625 C32.1280779 430.89534589 35.39091898 434.21816848 38.66015625 437.53515625 C39.40298355 438.30287857 40.14581085 439.07060089 40.91114807 439.86158752 C41.61215134 440.57250046 42.3131546 441.28341339 43.03540039 442.01586914 C43.64573624 442.64191544 44.25607208 443.26796173 44.88490295 443.91297913 C48.39312672 446.80135476 51.16745686 447.5 55.6875 447.5 C60.50531078 446.75950157 63.59107223 444.02022686 66.8125 440.5 C68.67553645 436.7739271 68.22861697 432.56659766 67.8125 428.5 C65.41722224 422.91101857 60.6014825 419.7405534 55.94140625 416.0546875 C52.58057882 413.36135627 49.44924888 410.44842275 46.3125 407.5 C42.29992311 403.73698364 38.22801346 400.13754301 33.9375 396.6875 C32.22663998 395.29476476 30.51809185 393.89918187 28.8125 392.5 C28.07386719 391.89671875 27.33523438 391.2934375 26.57421875 390.671875 C22.12045452 386.70900662 22.12045452 386.70900662 21.28515625 383.4296875 C21.14523482 380.39619083 21.68896311 377.8294317 22.75 375 C25.61412646 372.91699894 27.71486522 372.63430284 31.23046875 372.8046875 C36.78611507 374.3007617 40.70597149 378.66020136 44.8125 382.5 C45.80491818 383.41132437 46.79841871 384.3214714 47.79296875 385.23046875 C49.31154368 386.62103931 50.82749954 388.01394171 52.33569336 389.41577148 C55.52355515 392.36951104 58.79551462 395.15942226 62.1875 397.875 C66.65170512 401.4605772 70.83673213 405.26333499 75 409.1875 C85.14630201 419.35163898 85.14630201 419.35163898 98.42578125 422.78515625 C103.1387505 422.22206827 106.49744369 419.94656194 109.6875 416.4375 C112.02074956 412.41912575 112.26201185 409.07003717 111.8125 404.5 C108.89608792 397.19409015 102.65651663 392.44631822 96.8125 387.5 C95.47714349 386.33564959 94.14365659 385.1691497 92.8125 384 C92.173125 383.443125 91.53375 382.88625 90.875 382.3125 C87.63874923 379.46852205 84.44841332 376.57387299 81.25 373.6875 C79.11832519 371.77445851 76.9723089 369.88112388 74.8125 368 C70.91737189 364.60746907 67.08467237 361.14805799 63.25 357.6875 C60.47752692 355.19938313 57.67405151 352.74932536 54.86328125 350.3046875 C52.55161203 348.27041859 50.2771857 346.1977769 48 344.125 C44.62309018 341.07141133 41.18032868 338.15570795 37.625 335.3125 C31.55929782 330.40996514 25.93085023 325.07741963 20.2578125 319.73046875 C17.14484391 316.79918768 13.97091712 313.95385249 10.73046875 311.1640625 C6.70389656 307.67053958 2.76750191 304.07408984 -1.1875 300.5 C-4.19624098 301.83803458 -6.17135643 303.27584376 -8.39453125 305.6953125 C-8.9774292 306.3246167 -9.56032715 306.9539209 -10.16088867 307.60229492 C-10.76779541 308.2697876 -11.37470215 308.93728027 -12 309.625 C-12.62946533 310.30860596 -13.25893066 310.99221191 -13.9074707 311.6965332 C-17.46703226 315.57385503 -20.97602198 319.49045454 -24.41796875 323.47265625 C-43.58861352 345.4363751 -43.58861352 345.4363751 -56.04296875 346.81640625 C-64.88046944 347.1708209 -72.98008826 345.30404604 -80.0625 339.8125 C-86.49297136 333.73755951 -89.28395147 326.22964472 -89.5625 317.5625 C-89.47099427 310.05902982 -87.27468441 304.23492787 -84.1875 297.5 C-82.99621338 294.86971808 -81.8059781 292.23896674 -80.61694336 289.60766602 C-79.79815698 287.80607846 -78.97101962 286.00825966 -78.13500977 284.21459961 C-77.75401123 283.38839111 -77.3730127 282.56218262 -76.98046875 281.7109375 C-76.6352417 280.97149902 -76.29001465 280.23206055 -75.93432617 279.47021484 C-75.01027593 277.38363068 -75.01027593 277.38363068 -75.1875 274.5 C-81.10517947 274.9037946 -86.76551759 275.79683546 -92.5625 277.0625 C-111.96313125 280.9775125 -129.10625329 275.25354265 -147.1875 268.5 Z M-172.62207031 392.90380859 C-176.14630054 396.49729225 -177.98526771 401.2939553 -180.0625 405.8125 C-180.56007813 406.83279297 -181.05765625 407.85308594 -181.5703125 408.90429688 C-185.10114243 416.40535911 -185.10114243 416.40535911 -185.1875 424.5 C-182.75896618 427.7856634 -181.06475186 429.20758271 -177.1875 430.5 C-173.38446646 430.5 -172.09721785 429.96206895 -169.1875 427.5 C-165.41654684 422.82702483 -162.9977909 417.20548103 -160.4375 411.8125 C-159.97851318 410.85005371 -159.97851318 410.85005371 -159.51025391 409.86816406 C-156.36862452 403.27353938 -156.36862452 403.27353938 -157.3125 396.375 C-159.3591714 393.23677051 -160.78055724 391.99573097 -164.1875 390.5 C-167.96073899 390.5 -169.60618944 390.74486304 -172.62207031 392.90380859 Z M-133.1875 395.5 C-136.18815777 399.638555 -138.52934476 403.96169747 -140.67578125 408.5859375 C-140.98323776 409.24655182 -141.29069427 409.90716614 -141.60746765 410.58779907 C-142.24991225 411.97639395 -142.88926222 413.36642443 -143.52563477 414.7578125 C-144.49792326 416.87048746 -145.49572563 418.96988498 -146.49414062 421.0703125 C-147.1188068 422.42894415 -147.74190711 423.78829707 -148.36328125 425.1484375 C-148.66212723 425.76641205 -148.96097321 426.3843866 -149.26887512 427.02108765 C-151.4995741 432.03097338 -151.29036611 435.2792874 -150.1875 440.5 C-148.37431438 443.47880495 -146.89926259 445.06503397 -143.9375 446.875 C-140.21367523 447.72132381 -136.83239595 447.70115889 -133.1875 446.5 C-128.7470342 443.53259944 -126.64389192 440.17911231 -124.453125 435.43359375 C-123.96788361 434.42063988 -123.96788361 434.42063988 -123.47283936 433.38722229 C-122.44924064 431.24270085 -121.44343456 429.09035421 -120.4375 426.9375 C-119.74720412 425.48710122 -119.05580842 424.03722535 -118.36328125 422.58789062 C-112.79723005 411.58390332 -112.79723005 411.58390332 -112.1875 399.5 C-113.85988584 396.32915645 -116.20089727 394.20016968 -119.125 392.125 C-125.02143295 390.33820214 -128.51630662 391.64118807 -133.1875 395.5 Z M-100.1875 423.5 C-102.70434479 427.64216418 -104.70333409 431.95751619 -106.6875 436.375 C-107.23664063 437.52097656 -107.78578125 438.66695313 -108.3515625 439.84765625 C-111.28134164 446.24458608 -113.1287667 450.6093054 -111.1875 457.5 C-108.48862579 462.17112843 -105.33715424 464.01620132 -100.1875 465.5 C-95.17207857 464.89469052 -92.67106002 463.44393264 -89.54785156 459.5222168 C-86.62230683 455.17327799 -84.54469576 450.38152929 -82.375 445.625 C-81.87291016 444.57441406 -81.37082031 443.52382813 -80.85351562 442.44140625 C-78.12632119 436.5120774 -76.36622291 432.04062113 -77.1875 425.5 C-78.79673497 422.39647542 -80.19097267 420.28298576 -82.9375 418.125 C-90.76022619 415.9520205 -95.03745479 417.5002422 -100.1875 423.5 Z M-62.1875 443.5 C-63.66395831 445.93336766 -64.91758071 448.25166724 -66.125 450.8125 C-66.46764893 451.52583496 -66.81029785 452.23916992 -67.16333008 452.97412109 C-68.19040682 455.14113484 -69.19204303 457.31830684 -70.1875 459.5 C-70.63319336 460.45447021 -70.63319336 460.45447021 -71.08789062 461.42822266 C-71.87988197 463.14714064 -72.62874263 464.88573887 -73.375 466.625 C-73.80167969 467.61757813 -74.22835937 468.61015625 -74.66796875 469.6328125 C-75.36819855 473.49723864 -74.24439673 475.23669867 -72.1875 478.5 C-70.26107392 480.83204711 -70.26107392 480.83204711 -66.875 480.9375 C-63.11150044 480.4909831 -62.01907695 479.97080132 -59.50561523 477.27661133 C-56.64389882 473.4194692 -54.82173845 468.99146224 -52.875 464.625 C-52.42060547 463.65691406 -51.96621094 462.68882812 -51.49804688 461.69140625 C-49.11009108 456.41276712 -47.41095768 452.31253463 -48.1875 446.5 C-50.26977446 443.45667579 -51.64949505 442.65691811 -55.1875 441.625 C-58.54147152 441.48525119 -59.48742289 441.57869276 -62.1875 443.5 Z " fill="#000000" transform="translate(269.1875,2.5)"/>
<path d="M0 0 C8.34469028 5.97757184 13.93565628 12.84834692 16.375 22.875 C18.03614351 33.19325682 16.2011477 43.13554076 10.0859375 51.671875 C4.07328402 58.85306537 -2.63534961 63.55598521 -12 65 C-22.63224617 65.78200396 -31.78681255 64.5664929 -40.1875 57.65625 C-48.36597587 50.18281516 -52.41457026 41.89398843 -53.02734375 30.72265625 C-52.92790136 20.82103576 -49.54825839 13.132276 -42.9921875 5.734375 C-31.48433608 -5.4022554 -14.15608285 -7.90700123 0 0 Z M-30.75 19.625 C-33.60936737 23.37559876 -34.80076979 27.30613618 -35 32 C-34.15668254 37.8605226 -31.22594963 41.24358879 -26.71875 44.87109375 C-22.80605127 47.44102541 -18.52363183 47.59871598 -14 47 C-9.22105535 45.22716569 -5.6203527 42.36725449 -3 38 C-1.25558138 33.49214595 -0.48347884 29.49767929 -1.9375 24.8125 C-3.87550991 20.46718631 -7.06392247 17.58528728 -11 15 C-18.86859686 12.37713438 -24.82589243 13.97017004 -30.75 19.625 Z " fill="#000000" transform="translate(274,89)"/>
</svg>
